HIERARCHY
ROOT Hips
{
	OFFSET 0.000000 0.000000 0.000000
	CHANNELS 6 Xposition Yposition Zposition Zrotation Yrotation Xrotation 
	JOINT LHipJoint
	{
		OFFSET 0.000000 0.000000 0.000000
		CHANNELS 3 Zrotation Yrotation Xrotation
		JOINT LeftUpLeg
		{
			OFFSET 1.363060 -1.794630 0.839290
			CHANNELS 3 Zrotation Yrotation Xrotation
			JOINT LeftLeg
			{
				OFFSET 2.448110 -6.726130 0.000000
				CHANNELS 3 Zrotation Yrotation Xrotation
				JOINT LeftFoot
				{
					OFFSET 2.562200 -7.039590 0.000000
					CHANNELS 3 Zrotation Yrotation Xrotation
					JOINT LeftToeBase
					{
						OFFSET 0.157640 -0.433110 2.322550
						CHANNELS 3 Zrotation Yrotation Xrotation
						End Site
						{
							OFFSET 0.000000 0.000000 0.000000
						}
					}
				}
			}
		}
	}
	JOINT RHipJoint
	{
		OFFSET 0.000000 0.000000 0.000000
		CHANNELS 3 Zrotation Yrotation Xrotation
		JOINT RightUpLeg
		{
			OFFSET -1.305520 -1.794630 0.839290
			CHANNELS 3 Zrotation Yrotation Xrotation
			JOINT RightLeg
			{
				OFFSET -2.542530 -6.985550 0.000000
				CHANNELS 3 Zrotation Yrotation Xrotation
				JOINT RightFoot
				{
					OFFSET -2.568260 -7.056230 0.000000
					CHANNELS 3 Zrotation Yrotation Xrotation
					JOINT RightToeBase
					{
						OFFSET -0.164730 -0.452590 2.363150
						CHANNELS 3 Zrotation Yrotation Xrotation
						End Site
						{
							OFFSET 0.000000 0.000000 0.000000
						}
					}
				}
			}
		}
	}
}
MOTION
Frames: 22
Frame Time: 0.008333
6.176449 20.694588 0.864996 25.160759 -81.942381 -9.170586 -11.481031 4.734884 5.307987 -3.889290 -15.613811 -15.436612 2.023407 3.438848 77.770033 3.456066 17.489406 32.010924 9.496900 0.000000 -63.292800 12.127182 -4.536503 2.784517 4.162509 8.086116 -7.267547 -3.205584 -4.366136 78.374177 -1.983714 -9.145934 7.326515 -1.867800 -0.000000 -79.735800
5.985039 20.809974 0.846120 25.071612 -81.956453 -9.557995 -11.699579 4.793460 5.087317 -3.708910 -15.763817 -16.365751 2.417352 3.941327 83.624781 3.488581 17.823482 31.781522 9.630400 0.000000 -62.673500 12.400958 -4.680214 2.696513 3.963003 8.756980 -7.806992 -3.780438 -4.835078 84.791580 -1.889536 -8.707345 5.070586 -1.467801 0.000000 -79.231500
5.795309 20.915571 0.827398 24.921466 -82.008398 -9.848683 -11.942606 4.853800 4.873326 -3.411864 -15.997913 -17.252829 2.889620 4.446841 89.223004 3.475483 17.662102 31.713548 9.495000 0.000000 -62.041100 12.683643 -4.831445 2.617511 3.728658 9.549725 -8.278496 -4.458261 -5.310461 91.026294 -1.761778 -8.055059 2.911111 -1.086600 -0.000000 -78.502200
5.606300 21.011540 0.809253 24.710031 -82.103658 -10.035320 -12.206746 4.909877 4.675846 -2.998592 -16.340570 -18.091883 3.434942 4.945083 94.529161 3.418231 17.032376 31.798662 9.111000 0.000000 -61.547200 12.972228 -4.983769 2.556126 3.458949 10.484799 -8.683608 -5.243808 -5.783470 97.054084 -1.615474 -7.304800 0.797820 -0.755000 -0.000001 -77.482700
5.417903 21.098352 0.792214 24.353665 -82.236997 -10.050142 -12.488977 4.957081 4.497969 -2.464365 -16.819764 -18.845930 4.043399 5.429363 99.498239 3.318589 15.970380 32.033142 8.501200 -0.000000 -61.311200 13.257398 -5.130659 2.509995 3.170782 11.562977 -8.989923 -6.134905 -6.245694 102.826240 -1.468704 -6.589408 -1.294634 -0.491000 0.000000 -76.125600
5.228022 21.176239 0.776636 24.005391 -82.415799 -9.993786 -12.779495 4.989749 4.365028 -1.832116 -17.460305 -19.573080 4.695824 5.885119 104.088245 3.180926 14.522970 32.441845 7.695101 -0.000000 -61.274500 13.542829 -5.263126 2.507748 2.816237 12.826821 -9.268497 -7.122714 -6.678902 108.298348 -1.336413 -5.991314 -3.329658 -0.293600 0.000000 -74.665400
5.037153 21.245987 0.763003 23.463426 -82.613921 -9.706534 -13.074810 5.007223 4.270995 -1.086970 -18.291132 -20.203358 5.372310 6.311202 108.239004 3.006716 12.722194 33.006988 6.698400 0.000000 -61.438300 13.808568 -5.374760 2.530010 2.436469 14.237720 -9.452158 -8.181263 -7.074313 113.378318 -1.237926 -5.626044 -5.280761 -0.151600 0.000000 -73.007700
4.844675 21.307889 0.751604 22.703776 -82.814217 -9.154643 -13.366473 5.007391 4.225165 -0.235704 -19.334860 -20.749942 6.045624 6.701300 111.898881 2.800634 10.611134 33.721611 5.520500 0.000000 -61.744600 14.044536 -5.457522 2.580025 2.028308 15.789503 -9.564170 -9.272351 -7.417988 117.985644 -1.186323 -5.541503 -7.080576 -0.042800 0.000000 -71.231900
4.649932 21.362715 0.742348 21.746194 -82.998817 -8.348671 -13.644044 4.989247 4.237167 0.711447 -20.595636 -21.248831 6.686290 7.049631 115.024259 2.570044 8.245634 34.544841 4.171201 -0.000000 -61.992100 14.243823 -5.503956 2.660953 1.574758 17.458865 -9.657399 -10.343111 -7.698155 122.034458 -1.190431 -5.756808 -8.659178 0.054300 0.000000 -69.476900
4.453177 21.410656 0.735121 20.527898 -83.140539 -7.237634 -13.898897 4.952383 4.304148 1.749935 -22.069575 -21.711358 7.264838 7.355094 117.577711 2.325732 5.708909 35.423283 2.678700 -0.000000 -62.203100 14.394979 -5.509497 2.759483 1.096386 19.194203 -9.755633 -11.330704 -7.911828 125.443190 -1.252954 -6.266186 -9.974261 0.155100 -0.000001 -67.760800
4.253938 21.451961 0.729187 19.161525 -83.226264 -5.925529 -14.118663 4.896334 4.430176 2.860757 -23.720300 -22.201856 7.752937 7.613491 119.539598 2.083561 3.121142 36.277949 1.100700 0.000000 -62.210800 14.500405 -5.471803 2.873560 0.569949 20.940339 -9.942816 -12.173868 -8.060390 128.154711 -1.367445 -7.024845 -11.017225 0.265800 -0.000000 -66.155399
4.053534 21.486825 0.723991 17.630773 -83.234180 -4.426882 -14.295408 4.820705 4.598717 4.026035 -25.505106 -22.725268 8.128408 7.826733 120.903319 1.861476 0.644436 37.040228 -0.462900 -0.000000 -62.179600 14.555388 -5.391100 2.975955 0.035592 22.605261 -10.230730 -12.817268 -8.155072 130.123642 -1.523335 -7.984464 -11.829076 0.388400 -0.000001 -64.644000
3.850568 21.515158 0.718379 16.234726 -83.177930 -3.002473 -14.418287 4.723080 4.819909 5.221307 -27.337852 -23.403090 8.371319 7.987948 121.680280 1.680777 -1.536107 37.649436 -1.883700 -0.000000 -62.144800 14.578390 -5.269949 3.080210 -0.577871 24.137958 -10.754576 -13.226370 -8.203864 131.343621 -1.698566 -9.037451 -12.487640 0.522800 -0.000000 -63.237900
3.647229 21.536868 0.711945 14.921345 -83.047104 -1.652229 -14.485352 4.602441 5.063278 6.416837 -29.151062 -24.197761 8.475504 8.100905 121.888092 1.556856 -3.223292 38.052172 -3.011200 0.000000 -62.265600 14.564737 -5.111033 3.150632 -1.198403 25.435594 -11.467447 -13.382035 -8.221399 131.817475 -1.877332 -10.118212 -13.086835 0.675200 -0.000000 -61.872900
3.443605 21.552623 0.704234 13.802770 -82.856543 -0.483512 -14.495335 4.455678 5.318991 7.583217 -30.858497 -25.144216 8.440065 8.162561 121.554120 1.501889 -4.245722 38.215132 -3.709200 -0.000000 -62.686900 14.521485 -4.917977 3.186477 -1.830318 26.450564 -12.397319 -13.285163 -8.213696 131.572118 -2.037986 -11.119668 -13.707812 0.851100 0.000001 -60.514900
3.240692 21.562455 0.695293 12.877915 -82.618419 0.490784 -14.451188 4.279251 5.566691 8.684888 -32.386764 -26.224714 8.275313 8.171661 120.713473 1.519844 -4.481269 38.103937 -3.879600 -0.000000 -63.412100 14.447931 -4.693971 3.180278 -2.444124 27.151780 -13.511588 -12.950353 -8.183279 130.643076 -2.161632 -11.941701 -14.396236 1.050400 -0.000000 -59.133799
3.039313 21.566890 0.685377 12.122423 -82.350375 1.287513 -14.357732 4.070119 5.788679 9.686821 -33.672508 -27.410438 7.997666 8.125798 119.400243 1.607289 -3.884320 37.685417 -3.490300 -0.000000 -64.314600 14.342692 -4.442666 3.134246 -3.019548 27.543570 -14.769011 -12.404914 -8.127692 129.077947 -2.232115 -12.488141 -15.146652 1.259100 -0.000001 -57.740000
2.839986 21.565960 0.674786 11.507916 -82.073758 1.933805 -14.221045 3.827368 5.970981 10.554368 -34.666552 -28.661829 7.628597 8.022861 117.651155 1.753648 -2.501729 36.933481 -2.590000 0.000001 -65.196201 14.204744 -4.168068 3.059094 -3.549001 27.660452 -16.125092 -11.684481 -8.041223 126.928542 -2.239083 -12.684882 -15.901514 1.447400 0.000000 -56.399300
2.643437 21.559676 0.664034 10.984767 -81.804033 2.471122 -14.048047 3.551491 6.095898 11.246053 -35.343924 -29.911763 7.193477 7.863233 115.505677 1.941367 -0.477971 35.822895 -1.307100 -0.000001 -65.451500 14.031501 -3.873884 2.958817 -4.013124 27.547308 -17.504058 -10.831308 -7.918610 124.250927 -2.182250 -12.506286 -16.573995 1.579300 -0.000000 -55.205800
2.450103 21.547078 0.653056 10.567176 -81.568667 2.895898 -13.844180 3.245580 6.160896 11.740732 -35.685289 -31.129611 6.709832 7.646773 112.986904 2.153169 1.989683 34.398730 0.188900 -0.000000 -65.369000 13.828308 -3.560909 2.856461 -4.442110 27.272334 -18.898079 -9.893915 -7.753171 121.108967 -2.070590 -11.977893 -17.018572 1.615700 0.000000 -54.444400
2.260135 21.527325 0.642376 10.225480 -81.376488 3.227576 -13.616557 2.915816 6.156050 12.004710 -35.705958 -32.244066 6.201402 7.379421 110.138681 2.367122 4.644942 32.693094 1.702200 0.000000 -64.152400 13.596113 -3.233959 2.751820 -4.819143 26.882847 -20.227265 -8.918677 -7.544928 117.565490 -1.923480 -11.187123 -17.170939 1.553200 -0.000000 -54.166900
2.073542 21.499094 0.631887 9.984778 -81.243645 3.444236 -13.369548 2.570191 6.085847 12.028773 -35.428098 -33.224914 5.681023 7.066642 106.985198 2.567784 7.267250 30.810843 3.082300 0.000000 -62.119100 13.342791 -2.895416 2.656939 -5.164676 26.431789 -21.477133 -7.949493 -7.295498 113.688359 -1.764365 -10.256999 -16.970603 1.406400 0.000000 -54.480700
